<mxfile host="Electron" modified="2023-12-10T11:06:14.036Z" agent="Mozilla/5.0 (Windows NT 10.0; Win64; x64) AppleWebKit/537.36 (KHTML, like Gecko) draw.io/22.1.2 Chrome/114.0.5735.289 Electron/25.9.4 Safari/537.36" etag="2zUdCc_hCf1sHsMSe-Zm" version="22.1.2" type="device">
  <diagram name="Page-1" id="kwG1Tb61bwSE5z8DppzK">
    <mxGraphModel dx="2577" dy="2110" grid="1" gridSize="10" guides="1" tooltips="1" connect="1" arrows="1" fold="1" page="1" pageScale="1" pageWidth="850" pageHeight="1100" math="0" shadow="0">
      <root>
        <mxCell id="0" />
        <mxCell id="1" parent="0" />
        <mxCell id="VRYn3jgNpUZlm6RyWlzc-5" style="edgeStyle=orthogonalEdgeStyle;rounded=0;orthogonalLoop=1;jettySize=auto;html=1;endArrow=none;endFill=0;" parent="1" source="VRYn3jgNpUZlm6RyWlzc-1" target="VRYn3jgNpUZlm6RyWlzc-4" edge="1">
          <mxGeometry relative="1" as="geometry" />
        </mxCell>
        <mxCell id="VRYn3jgNpUZlm6RyWlzc-6" value="12&amp;nbsp;" style="edgeLabel;html=1;align=center;verticalAlign=middle;resizable=0;points=[];" parent="VRYn3jgNpUZlm6RyWlzc-5" vertex="1" connectable="0">
          <mxGeometry x="0.0071" y="4" relative="1" as="geometry">
            <mxPoint as="offset" />
          </mxGeometry>
        </mxCell>
        <mxCell id="VRYn3jgNpUZlm6RyWlzc-86" style="edgeStyle=orthogonalEdgeStyle;rounded=0;orthogonalLoop=1;jettySize=auto;html=1;entryX=0;entryY=0;entryDx=0;entryDy=0;endArrow=none;endFill=0;" parent="1" source="VRYn3jgNpUZlm6RyWlzc-1" target="VRYn3jgNpUZlm6RyWlzc-85" edge="1">
          <mxGeometry relative="1" as="geometry">
            <Array as="points">
              <mxPoint x="650" y="200" />
              <mxPoint x="650" y="200" />
            </Array>
          </mxGeometry>
        </mxCell>
        <mxCell id="VRYn3jgNpUZlm6RyWlzc-87" value="17.5" style="edgeLabel;html=1;align=center;verticalAlign=middle;resizable=0;points=[];" parent="VRYn3jgNpUZlm6RyWlzc-86" vertex="1" connectable="0">
          <mxGeometry x="0.061" relative="1" as="geometry">
            <mxPoint as="offset" />
          </mxGeometry>
        </mxCell>
        <mxCell id="VRYn3jgNpUZlm6RyWlzc-1" value="9103" style="ellipse;whiteSpace=wrap;html=1;" parent="1" vertex="1">
          <mxGeometry x="530" y="150" width="120" height="80" as="geometry" />
        </mxCell>
        <mxCell id="VRYn3jgNpUZlm6RyWlzc-34" style="edgeStyle=orthogonalEdgeStyle;rounded=0;orthogonalLoop=1;jettySize=auto;html=1;entryX=0.5;entryY=0;entryDx=0;entryDy=0;endArrow=none;endFill=0;" parent="1" source="VRYn3jgNpUZlm6RyWlzc-4" target="VRYn3jgNpUZlm6RyWlzc-35" edge="1">
          <mxGeometry relative="1" as="geometry">
            <mxPoint x="290" y="770.9091186523438" as="targetPoint" />
          </mxGeometry>
        </mxCell>
        <mxCell id="VRYn3jgNpUZlm6RyWlzc-36" value="64" style="edgeLabel;html=1;align=center;verticalAlign=middle;resizable=0;points=[];" parent="VRYn3jgNpUZlm6RyWlzc-34" vertex="1" connectable="0">
          <mxGeometry x="0.2404" y="1" relative="1" as="geometry">
            <mxPoint x="-1" y="-48" as="offset" />
          </mxGeometry>
        </mxCell>
        <mxCell id="VRYn3jgNpUZlm6RyWlzc-4" value="9104" style="ellipse;whiteSpace=wrap;html=1;" parent="1" vertex="1">
          <mxGeometry x="230" y="150" width="120" height="80" as="geometry" />
        </mxCell>
        <mxCell id="VRYn3jgNpUZlm6RyWlzc-9" style="edgeStyle=orthogonalEdgeStyle;rounded=0;orthogonalLoop=1;jettySize=auto;html=1;entryX=0.5;entryY=0;entryDx=0;entryDy=0;endArrow=none;endFill=0;" parent="1" source="VRYn3jgNpUZlm6RyWlzc-8" target="VRYn3jgNpUZlm6RyWlzc-10" edge="1">
          <mxGeometry relative="1" as="geometry">
            <mxPoint x="140" y="460" as="targetPoint" />
          </mxGeometry>
        </mxCell>
        <mxCell id="VRYn3jgNpUZlm6RyWlzc-12" value="7" style="edgeLabel;html=1;align=center;verticalAlign=middle;resizable=0;points=[];" parent="VRYn3jgNpUZlm6RyWlzc-9" vertex="1" connectable="0">
          <mxGeometry x="-0.2234" y="1" relative="1" as="geometry">
            <mxPoint as="offset" />
          </mxGeometry>
        </mxCell>
        <mxCell id="VRYn3jgNpUZlm6RyWlzc-13" style="edgeStyle=orthogonalEdgeStyle;rounded=0;orthogonalLoop=1;jettySize=auto;html=1;entryX=0;entryY=0.5;entryDx=0;entryDy=0;endArrow=none;endFill=0;" parent="1" source="VRYn3jgNpUZlm6RyWlzc-8" target="VRYn3jgNpUZlm6RyWlzc-14" edge="1">
          <mxGeometry relative="1" as="geometry">
            <mxPoint y="140" as="targetPoint" />
            <Array as="points">
              <mxPoint x="40" y="60" />
            </Array>
          </mxGeometry>
        </mxCell>
        <mxCell id="VRYn3jgNpUZlm6RyWlzc-15" value="3.5" style="edgeLabel;html=1;align=center;verticalAlign=middle;resizable=0;points=[];" parent="VRYn3jgNpUZlm6RyWlzc-13" vertex="1" connectable="0">
          <mxGeometry x="0.1603" y="-1" relative="1" as="geometry">
            <mxPoint as="offset" />
          </mxGeometry>
        </mxCell>
        <mxCell id="VRYn3jgNpUZlm6RyWlzc-8" value="NW_TG2_LOWER" style="ellipse;whiteSpace=wrap;html=1;" parent="1" vertex="1">
          <mxGeometry x="10" y="190" width="120" height="80" as="geometry" />
        </mxCell>
        <mxCell id="VRYn3jgNpUZlm6RyWlzc-20" style="edgeStyle=orthogonalEdgeStyle;rounded=0;orthogonalLoop=1;jettySize=auto;html=1;endArrow=none;endFill=0;" parent="1" source="VRYn3jgNpUZlm6RyWlzc-10" target="VRYn3jgNpUZlm6RyWlzc-16" edge="1">
          <mxGeometry relative="1" as="geometry" />
        </mxCell>
        <mxCell id="VRYn3jgNpUZlm6RyWlzc-21" value="10.5" style="edgeLabel;html=1;align=center;verticalAlign=middle;resizable=0;points=[];" parent="VRYn3jgNpUZlm6RyWlzc-20" vertex="1" connectable="0">
          <mxGeometry x="-0.162" y="-5" relative="1" as="geometry">
            <mxPoint as="offset" />
          </mxGeometry>
        </mxCell>
        <mxCell id="VRYn3jgNpUZlm6RyWlzc-96" value="" style="edgeStyle=orthogonalEdgeStyle;rounded=0;orthogonalLoop=1;jettySize=auto;html=1;endArrow=none;endFill=0;" parent="1" source="VRYn3jgNpUZlm6RyWlzc-10" target="VRYn3jgNpUZlm6RyWlzc-95" edge="1">
          <mxGeometry relative="1" as="geometry" />
        </mxCell>
        <mxCell id="VRYn3jgNpUZlm6RyWlzc-97" value="7" style="edgeLabel;html=1;align=center;verticalAlign=middle;resizable=0;points=[];" parent="VRYn3jgNpUZlm6RyWlzc-96" vertex="1" connectable="0">
          <mxGeometry x="-0.2242" y="-3" relative="1" as="geometry">
            <mxPoint as="offset" />
          </mxGeometry>
        </mxCell>
        <mxCell id="VRYn3jgNpUZlm6RyWlzc-10" value="NW_TG2_UPPER" style="ellipse;whiteSpace=wrap;html=1;" parent="1" vertex="1">
          <mxGeometry x="-130" y="390" width="120" height="80" as="geometry" />
        </mxCell>
        <mxCell id="VRYn3jgNpUZlm6RyWlzc-17" style="edgeStyle=orthogonalEdgeStyle;rounded=0;orthogonalLoop=1;jettySize=auto;html=1;entryX=0;entryY=0.5;entryDx=0;entryDy=0;endArrow=none;endFill=0;" parent="1" source="VRYn3jgNpUZlm6RyWlzc-14" target="VRYn3jgNpUZlm6RyWlzc-18" edge="1">
          <mxGeometry relative="1" as="geometry">
            <mxPoint x="570" y="60" as="targetPoint" />
          </mxGeometry>
        </mxCell>
        <mxCell id="VRYn3jgNpUZlm6RyWlzc-19" value="12" style="edgeLabel;html=1;align=center;verticalAlign=middle;resizable=0;points=[];" parent="VRYn3jgNpUZlm6RyWlzc-17" vertex="1" connectable="0">
          <mxGeometry x="-0.0283" y="-2" relative="1" as="geometry">
            <mxPoint as="offset" />
          </mxGeometry>
        </mxCell>
        <mxCell id="VRYn3jgNpUZlm6RyWlzc-14" value="9124" style="ellipse;whiteSpace=wrap;html=1;" parent="1" vertex="1">
          <mxGeometry x="240" y="20" width="120" height="80" as="geometry" />
        </mxCell>
        <mxCell id="VRYn3jgNpUZlm6RyWlzc-23" value="" style="edgeStyle=orthogonalEdgeStyle;rounded=0;orthogonalLoop=1;jettySize=auto;html=1;endArrow=none;endFill=0;" parent="1" source="VRYn3jgNpUZlm6RyWlzc-16" target="VRYn3jgNpUZlm6RyWlzc-22" edge="1">
          <mxGeometry relative="1" as="geometry" />
        </mxCell>
        <mxCell id="VRYn3jgNpUZlm6RyWlzc-24" value="12" style="edgeLabel;html=1;align=center;verticalAlign=middle;resizable=0;points=[];" parent="VRYn3jgNpUZlm6RyWlzc-23" vertex="1" connectable="0">
          <mxGeometry x="0.121" y="-4" relative="1" as="geometry">
            <mxPoint as="offset" />
          </mxGeometry>
        </mxCell>
        <mxCell id="VRYn3jgNpUZlm6RyWlzc-16" value="9125" style="ellipse;whiteSpace=wrap;html=1;" parent="1" vertex="1">
          <mxGeometry x="-290" y="480" width="120" height="80" as="geometry" />
        </mxCell>
        <mxCell id="VRYn3jgNpUZlm6RyWlzc-18" value="9123" style="ellipse;whiteSpace=wrap;html=1;" parent="1" vertex="1">
          <mxGeometry x="540" y="20" width="120" height="80" as="geometry" />
        </mxCell>
        <mxCell id="VRYn3jgNpUZlm6RyWlzc-26" style="edgeStyle=orthogonalEdgeStyle;rounded=0;orthogonalLoop=1;jettySize=auto;html=1;entryX=0;entryY=0.5;entryDx=0;entryDy=0;endArrow=none;endFill=0;" parent="1" source="VRYn3jgNpUZlm6RyWlzc-22" target="VRYn3jgNpUZlm6RyWlzc-25" edge="1">
          <mxGeometry relative="1" as="geometry">
            <Array as="points">
              <mxPoint x="-240" y="820" />
            </Array>
          </mxGeometry>
        </mxCell>
        <mxCell id="VRYn3jgNpUZlm6RyWlzc-27" value="10.5" style="edgeLabel;html=1;align=center;verticalAlign=middle;resizable=0;points=[];" parent="VRYn3jgNpUZlm6RyWlzc-26" vertex="1" connectable="0">
          <mxGeometry x="0.2151" relative="1" as="geometry">
            <mxPoint as="offset" />
          </mxGeometry>
        </mxCell>
        <mxCell id="VRYn3jgNpUZlm6RyWlzc-22" value="9126" style="ellipse;whiteSpace=wrap;html=1;" parent="1" vertex="1">
          <mxGeometry x="-290" y="640" width="120" height="80" as="geometry" />
        </mxCell>
        <mxCell id="VRYn3jgNpUZlm6RyWlzc-29" style="edgeStyle=orthogonalEdgeStyle;rounded=0;orthogonalLoop=1;jettySize=auto;html=1;entryX=0;entryY=0.5;entryDx=0;entryDy=0;endArrow=none;endFill=0;" parent="1" source="VRYn3jgNpUZlm6RyWlzc-25" target="VRYn3jgNpUZlm6RyWlzc-28" edge="1">
          <mxGeometry relative="1" as="geometry">
            <Array as="points">
              <mxPoint x="-100" y="940" />
            </Array>
          </mxGeometry>
        </mxCell>
        <mxCell id="VRYn3jgNpUZlm6RyWlzc-30" value="7" style="edgeLabel;html=1;align=center;verticalAlign=middle;resizable=0;points=[];" parent="VRYn3jgNpUZlm6RyWlzc-29" vertex="1" connectable="0">
          <mxGeometry x="0.1828" relative="1" as="geometry">
            <mxPoint as="offset" />
          </mxGeometry>
        </mxCell>
        <mxCell id="VRYn3jgNpUZlm6RyWlzc-25" value="SW_TG2_UPPER" style="ellipse;whiteSpace=wrap;html=1;" parent="1" vertex="1">
          <mxGeometry x="-160" y="780" width="120" height="80" as="geometry" />
        </mxCell>
        <mxCell id="VRYn3jgNpUZlm6RyWlzc-31" style="edgeStyle=orthogonalEdgeStyle;rounded=0;orthogonalLoop=1;jettySize=auto;html=1;entryX=0;entryY=0.5;entryDx=0;entryDy=0;endArrow=none;endFill=0;" parent="1" source="VRYn3jgNpUZlm6RyWlzc-28" target="VRYn3jgNpUZlm6RyWlzc-32" edge="1">
          <mxGeometry relative="1" as="geometry">
            <mxPoint x="90" y="1060" as="targetPoint" />
            <Array as="points">
              <mxPoint x="70" y="1070" />
            </Array>
          </mxGeometry>
        </mxCell>
        <mxCell id="VRYn3jgNpUZlm6RyWlzc-33" value="3.5" style="edgeLabel;html=1;align=center;verticalAlign=middle;resizable=0;points=[];" parent="VRYn3jgNpUZlm6RyWlzc-31" vertex="1" connectable="0">
          <mxGeometry x="-0.3335" relative="1" as="geometry">
            <mxPoint as="offset" />
          </mxGeometry>
        </mxCell>
        <mxCell id="VRYn3jgNpUZlm6RyWlzc-28" value="SW_TG2_LOWER" style="ellipse;whiteSpace=wrap;html=1;" parent="1" vertex="1">
          <mxGeometry x="10" y="900" width="120" height="80" as="geometry" />
        </mxCell>
        <mxCell id="VRYn3jgNpUZlm6RyWlzc-45" value="" style="edgeStyle=orthogonalEdgeStyle;rounded=0;orthogonalLoop=1;jettySize=auto;html=1;endArrow=none;endFill=0;" parent="1" source="VRYn3jgNpUZlm6RyWlzc-32" target="VRYn3jgNpUZlm6RyWlzc-44" edge="1">
          <mxGeometry relative="1" as="geometry" />
        </mxCell>
        <mxCell id="VRYn3jgNpUZlm6RyWlzc-46" value="12" style="edgeLabel;html=1;align=center;verticalAlign=middle;resizable=0;points=[];" parent="VRYn3jgNpUZlm6RyWlzc-45" vertex="1" connectable="0">
          <mxGeometry x="0.1487" relative="1" as="geometry">
            <mxPoint as="offset" />
          </mxGeometry>
        </mxCell>
        <mxCell id="VRYn3jgNpUZlm6RyWlzc-32" value="9127" style="ellipse;whiteSpace=wrap;html=1;" parent="1" vertex="1">
          <mxGeometry x="230" y="1030" width="120" height="80" as="geometry" />
        </mxCell>
        <mxCell id="VRYn3jgNpUZlm6RyWlzc-38" value="" style="edgeStyle=orthogonalEdgeStyle;rounded=0;orthogonalLoop=1;jettySize=auto;html=1;endArrow=none;endFill=0;" parent="1" source="VRYn3jgNpUZlm6RyWlzc-35" target="VRYn3jgNpUZlm6RyWlzc-37" edge="1">
          <mxGeometry relative="1" as="geometry" />
        </mxCell>
        <mxCell id="VRYn3jgNpUZlm6RyWlzc-41" value="12" style="edgeLabel;html=1;align=center;verticalAlign=middle;resizable=0;points=[];" parent="VRYn3jgNpUZlm6RyWlzc-38" vertex="1" connectable="0">
          <mxGeometry x="-0.196" y="-1" relative="1" as="geometry">
            <mxPoint as="offset" />
          </mxGeometry>
        </mxCell>
        <mxCell id="VRYn3jgNpUZlm6RyWlzc-81" style="edgeStyle=orthogonalEdgeStyle;rounded=0;orthogonalLoop=1;jettySize=auto;html=1;endArrow=none;endFill=0;" parent="1" source="VRYn3jgNpUZlm6RyWlzc-35" target="VRYn3jgNpUZlm6RyWlzc-80" edge="1">
          <mxGeometry relative="1" as="geometry" />
        </mxCell>
        <mxCell id="VRYn3jgNpUZlm6RyWlzc-83" value="17.5" style="edgeLabel;html=1;align=center;verticalAlign=middle;resizable=0;points=[];" parent="VRYn3jgNpUZlm6RyWlzc-81" vertex="1" connectable="0">
          <mxGeometry x="-0.1777" y="1" relative="1" as="geometry">
            <mxPoint y="-16" as="offset" />
          </mxGeometry>
        </mxCell>
        <mxCell id="VRYn3jgNpUZlm6RyWlzc-35" value="9107" style="ellipse;whiteSpace=wrap;html=1;" parent="1" vertex="1">
          <mxGeometry x="230" y="840" width="120" height="80" as="geometry" />
        </mxCell>
        <mxCell id="VRYn3jgNpUZlm6RyWlzc-77" style="edgeStyle=orthogonalEdgeStyle;rounded=0;orthogonalLoop=1;jettySize=auto;html=1;entryX=0;entryY=0.5;entryDx=0;entryDy=0;endArrow=none;endFill=0;" parent="1" source="VRYn3jgNpUZlm6RyWlzc-37" target="VRYn3jgNpUZlm6RyWlzc-70" edge="1">
          <mxGeometry relative="1" as="geometry" />
        </mxCell>
        <mxCell id="VRYn3jgNpUZlm6RyWlzc-78" value="17.5" style="edgeLabel;html=1;align=center;verticalAlign=middle;resizable=0;points=[];" parent="VRYn3jgNpUZlm6RyWlzc-77" vertex="1" connectable="0">
          <mxGeometry x="-0.2153" y="-2" relative="1" as="geometry">
            <mxPoint as="offset" />
          </mxGeometry>
        </mxCell>
        <mxCell id="VRYn3jgNpUZlm6RyWlzc-37" value="9108" style="ellipse;whiteSpace=wrap;html=1;" parent="1" vertex="1">
          <mxGeometry x="530" y="840" width="120" height="80" as="geometry" />
        </mxCell>
        <mxCell id="VRYn3jgNpUZlm6RyWlzc-39" style="edgeStyle=orthogonalEdgeStyle;rounded=0;orthogonalLoop=1;jettySize=auto;html=1;entryX=0.5;entryY=0;entryDx=0;entryDy=0;endArrow=none;endFill=0;" parent="1" source="VRYn3jgNpUZlm6RyWlzc-1" target="VRYn3jgNpUZlm6RyWlzc-37" edge="1">
          <mxGeometry relative="1" as="geometry" />
        </mxCell>
        <mxCell id="VRYn3jgNpUZlm6RyWlzc-40" value="64" style="edgeLabel;html=1;align=center;verticalAlign=middle;resizable=0;points=[];" parent="VRYn3jgNpUZlm6RyWlzc-39" vertex="1" connectable="0">
          <mxGeometry x="0.1101" y="-4" relative="1" as="geometry">
            <mxPoint x="4" y="-8" as="offset" />
          </mxGeometry>
        </mxCell>
        <mxCell id="VRYn3jgNpUZlm6RyWlzc-48" style="edgeStyle=orthogonalEdgeStyle;rounded=0;orthogonalLoop=1;jettySize=auto;html=1;entryX=0.5;entryY=1;entryDx=0;entryDy=0;endArrow=none;endFill=0;" parent="1" source="VRYn3jgNpUZlm6RyWlzc-44" target="VRYn3jgNpUZlm6RyWlzc-47" edge="1">
          <mxGeometry relative="1" as="geometry" />
        </mxCell>
        <mxCell id="VRYn3jgNpUZlm6RyWlzc-49" value="3.5" style="edgeLabel;html=1;align=center;verticalAlign=middle;resizable=0;points=[];" parent="VRYn3jgNpUZlm6RyWlzc-48" vertex="1" connectable="0">
          <mxGeometry x="0.107" y="2" relative="1" as="geometry">
            <mxPoint as="offset" />
          </mxGeometry>
        </mxCell>
        <mxCell id="VRYn3jgNpUZlm6RyWlzc-44" value="9128" style="ellipse;whiteSpace=wrap;html=1;" parent="1" vertex="1">
          <mxGeometry x="530" y="1030" width="120" height="80" as="geometry" />
        </mxCell>
        <mxCell id="VRYn3jgNpUZlm6RyWlzc-51" style="edgeStyle=orthogonalEdgeStyle;rounded=0;orthogonalLoop=1;jettySize=auto;html=1;endArrow=none;endFill=0;" parent="1" source="VRYn3jgNpUZlm6RyWlzc-47" target="VRYn3jgNpUZlm6RyWlzc-50" edge="1">
          <mxGeometry relative="1" as="geometry" />
        </mxCell>
        <mxCell id="VRYn3jgNpUZlm6RyWlzc-52" value="7" style="edgeLabel;html=1;align=center;verticalAlign=middle;resizable=0;points=[];" parent="VRYn3jgNpUZlm6RyWlzc-51" vertex="1" connectable="0">
          <mxGeometry x="-0.0662" y="3" relative="1" as="geometry">
            <mxPoint x="-24" y="3" as="offset" />
          </mxGeometry>
        </mxCell>
        <mxCell id="VRYn3jgNpUZlm6RyWlzc-47" value="SE_TG2_LOWER" style="ellipse;whiteSpace=wrap;html=1;" parent="1" vertex="1">
          <mxGeometry x="720" y="910" width="120" height="80" as="geometry" />
        </mxCell>
        <mxCell id="VRYn3jgNpUZlm6RyWlzc-54" style="edgeStyle=orthogonalEdgeStyle;rounded=0;orthogonalLoop=1;jettySize=auto;html=1;entryX=0.5;entryY=1;entryDx=0;entryDy=0;endArrow=none;endFill=0;" parent="1" source="VRYn3jgNpUZlm6RyWlzc-50" target="VRYn3jgNpUZlm6RyWlzc-53" edge="1">
          <mxGeometry relative="1" as="geometry" />
        </mxCell>
        <mxCell id="VRYn3jgNpUZlm6RyWlzc-55" value="10.5" style="edgeLabel;html=1;align=center;verticalAlign=middle;resizable=0;points=[];" parent="VRYn3jgNpUZlm6RyWlzc-54" vertex="1" connectable="0">
          <mxGeometry x="-0.0241" y="1" relative="1" as="geometry">
            <mxPoint as="offset" />
          </mxGeometry>
        </mxCell>
        <mxCell id="VRYn3jgNpUZlm6RyWlzc-98" style="edgeStyle=orthogonalEdgeStyle;rounded=0;orthogonalLoop=1;jettySize=auto;html=1;entryX=1;entryY=0.5;entryDx=0;entryDy=0;endArrow=none;endFill=0;" parent="1" source="VRYn3jgNpUZlm6RyWlzc-50" target="VRYn3jgNpUZlm6RyWlzc-99" edge="1">
          <mxGeometry relative="1" as="geometry">
            <mxPoint x="740" y="680" as="targetPoint" />
            <Array as="points">
              <mxPoint x="860" y="830" />
              <mxPoint x="860" y="680" />
            </Array>
          </mxGeometry>
        </mxCell>
        <mxCell id="VRYn3jgNpUZlm6RyWlzc-100" value="7" style="edgeLabel;html=1;align=center;verticalAlign=middle;resizable=0;points=[];" parent="VRYn3jgNpUZlm6RyWlzc-98" vertex="1" connectable="0">
          <mxGeometry x="-0.1719" y="-1" relative="1" as="geometry">
            <mxPoint y="-1" as="offset" />
          </mxGeometry>
        </mxCell>
        <mxCell id="VRYn3jgNpUZlm6RyWlzc-102" value="" style="edgeStyle=orthogonalEdgeStyle;rounded=0;orthogonalLoop=1;jettySize=auto;html=1;endArrow=none;endFill=0;" parent="1" source="VRYn3jgNpUZlm6RyWlzc-50" target="VRYn3jgNpUZlm6RyWlzc-101" edge="1">
          <mxGeometry relative="1" as="geometry">
            <Array as="points">
              <mxPoint x="1040" y="830" />
              <mxPoint x="1040" y="1010" />
            </Array>
          </mxGeometry>
        </mxCell>
        <mxCell id="VRYn3jgNpUZlm6RyWlzc-103" value="14" style="edgeLabel;html=1;align=center;verticalAlign=middle;resizable=0;points=[];" parent="VRYn3jgNpUZlm6RyWlzc-102" vertex="1" connectable="0">
          <mxGeometry x="-0.146" y="-5" relative="1" as="geometry">
            <mxPoint as="offset" />
          </mxGeometry>
        </mxCell>
        <mxCell id="VRYn3jgNpUZlm6RyWlzc-50" value="SE_TG2_UPPER" style="ellipse;whiteSpace=wrap;html=1;" parent="1" vertex="1">
          <mxGeometry x="900" y="790" width="120" height="80" as="geometry" />
        </mxCell>
        <mxCell id="VRYn3jgNpUZlm6RyWlzc-57" style="edgeStyle=orthogonalEdgeStyle;rounded=0;orthogonalLoop=1;jettySize=auto;html=1;entryX=0.5;entryY=1;entryDx=0;entryDy=0;endArrow=none;endFill=0;" parent="1" source="VRYn3jgNpUZlm6RyWlzc-53" target="VRYn3jgNpUZlm6RyWlzc-56" edge="1">
          <mxGeometry relative="1" as="geometry" />
        </mxCell>
        <mxCell id="VRYn3jgNpUZlm6RyWlzc-60" value="12" style="edgeLabel;html=1;align=center;verticalAlign=middle;resizable=0;points=[];" parent="VRYn3jgNpUZlm6RyWlzc-57" vertex="1" connectable="0">
          <mxGeometry x="0.0391" y="6" relative="1" as="geometry">
            <mxPoint x="6" y="-3" as="offset" />
          </mxGeometry>
        </mxCell>
        <mxCell id="VRYn3jgNpUZlm6RyWlzc-53" value="9121" style="ellipse;whiteSpace=wrap;html=1;" parent="1" vertex="1">
          <mxGeometry x="860" y="610" width="120" height="80" as="geometry" />
        </mxCell>
        <mxCell id="VRYn3jgNpUZlm6RyWlzc-62" style="edgeStyle=orthogonalEdgeStyle;rounded=0;orthogonalLoop=1;jettySize=auto;html=1;" parent="1" source="VRYn3jgNpUZlm6RyWlzc-56" target="VRYn3jgNpUZlm6RyWlzc-61" edge="1">
          <mxGeometry relative="1" as="geometry" />
        </mxCell>
        <mxCell id="VRYn3jgNpUZlm6RyWlzc-110" value="10.5" style="edgeLabel;html=1;align=center;verticalAlign=middle;resizable=0;points=[];" parent="VRYn3jgNpUZlm6RyWlzc-62" vertex="1" connectable="0">
          <mxGeometry x="-0.0545" y="-1" relative="1" as="geometry">
            <mxPoint as="offset" />
          </mxGeometry>
        </mxCell>
        <mxCell id="VRYn3jgNpUZlm6RyWlzc-56" value="9122" style="ellipse;whiteSpace=wrap;html=1;" parent="1" vertex="1">
          <mxGeometry x="860" y="440" width="120" height="80" as="geometry" />
        </mxCell>
        <mxCell id="VRYn3jgNpUZlm6RyWlzc-64" style="edgeStyle=orthogonalEdgeStyle;rounded=0;orthogonalLoop=1;jettySize=auto;html=1;endArrow=none;endFill=0;" parent="1" source="VRYn3jgNpUZlm6RyWlzc-61" target="VRYn3jgNpUZlm6RyWlzc-63" edge="1">
          <mxGeometry relative="1" as="geometry" />
        </mxCell>
        <mxCell id="VRYn3jgNpUZlm6RyWlzc-66" value="7" style="edgeLabel;html=1;align=center;verticalAlign=middle;resizable=0;points=[];" parent="VRYn3jgNpUZlm6RyWlzc-64" vertex="1" connectable="0">
          <mxGeometry x="-0.2235" y="-2" relative="1" as="geometry">
            <mxPoint x="1" as="offset" />
          </mxGeometry>
        </mxCell>
        <mxCell id="VRYn3jgNpUZlm6RyWlzc-114" style="edgeStyle=orthogonalEdgeStyle;rounded=0;orthogonalLoop=1;jettySize=auto;html=1;entryX=0;entryY=0.5;entryDx=0;entryDy=0;endArrow=none;endFill=0;" parent="1" source="VRYn3jgNpUZlm6RyWlzc-61" target="VRYn3jgNpUZlm6RyWlzc-112" edge="1">
          <mxGeometry relative="1" as="geometry" />
        </mxCell>
        <mxCell id="VRYn3jgNpUZlm6RyWlzc-115" value="14" style="edgeLabel;html=1;align=center;verticalAlign=middle;resizable=0;points=[];" parent="VRYn3jgNpUZlm6RyWlzc-114" vertex="1" connectable="0">
          <mxGeometry x="-0.0477" y="1" relative="1" as="geometry">
            <mxPoint as="offset" />
          </mxGeometry>
        </mxCell>
        <mxCell id="VRYn3jgNpUZlm6RyWlzc-61" value="NE_TG2_UPPER" style="ellipse;whiteSpace=wrap;html=1;" parent="1" vertex="1">
          <mxGeometry x="860" y="280" width="120" height="80" as="geometry" />
        </mxCell>
        <mxCell id="VRYn3jgNpUZlm6RyWlzc-68" style="edgeStyle=orthogonalEdgeStyle;rounded=0;orthogonalLoop=1;jettySize=auto;html=1;entryX=1;entryY=0.5;entryDx=0;entryDy=0;endArrow=none;endFill=0;" parent="1" source="VRYn3jgNpUZlm6RyWlzc-63" target="VRYn3jgNpUZlm6RyWlzc-18" edge="1">
          <mxGeometry relative="1" as="geometry">
            <Array as="points">
              <mxPoint x="760" y="60" />
            </Array>
          </mxGeometry>
        </mxCell>
        <mxCell id="VRYn3jgNpUZlm6RyWlzc-69" value="3.5" style="edgeLabel;html=1;align=center;verticalAlign=middle;resizable=0;points=[];" parent="VRYn3jgNpUZlm6RyWlzc-68" vertex="1" connectable="0">
          <mxGeometry x="-0.0305" y="-2" relative="1" as="geometry">
            <mxPoint as="offset" />
          </mxGeometry>
        </mxCell>
        <mxCell id="VRYn3jgNpUZlm6RyWlzc-63" value="NE_TG2_LOWER" style="ellipse;whiteSpace=wrap;html=1;" parent="1" vertex="1">
          <mxGeometry x="720" y="170" width="120" height="80" as="geometry" />
        </mxCell>
        <mxCell id="VRYn3jgNpUZlm6RyWlzc-76" style="edgeStyle=orthogonalEdgeStyle;rounded=0;orthogonalLoop=1;jettySize=auto;html=1;endArrow=none;endFill=0;" parent="1" source="VRYn3jgNpUZlm6RyWlzc-70" target="VRYn3jgNpUZlm6RyWlzc-47" edge="1">
          <mxGeometry relative="1" as="geometry" />
        </mxCell>
        <mxCell id="VRYn3jgNpUZlm6RyWlzc-79" value="21" style="edgeLabel;html=1;align=center;verticalAlign=middle;resizable=0;points=[];" parent="VRYn3jgNpUZlm6RyWlzc-76" vertex="1" connectable="0">
          <mxGeometry x="-0.423" y="2" relative="1" as="geometry">
            <mxPoint as="offset" />
          </mxGeometry>
        </mxCell>
        <mxCell id="VRYn3jgNpUZlm6RyWlzc-165" style="edgeStyle=orthogonalEdgeStyle;rounded=0;orthogonalLoop=1;jettySize=auto;html=1;entryX=0.5;entryY=1;entryDx=0;entryDy=0;endArrow=none;endFill=0;" parent="1" source="VRYn3jgNpUZlm6RyWlzc-70" target="VRYn3jgNpUZlm6RyWlzc-166" edge="1">
          <mxGeometry relative="1" as="geometry">
            <mxPoint x="500" y="660" as="targetPoint" />
            <Array as="points">
              <mxPoint x="780" y="750" />
              <mxPoint x="500" y="750" />
            </Array>
          </mxGeometry>
        </mxCell>
        <mxCell id="VRYn3jgNpUZlm6RyWlzc-167" value="14" style="edgeLabel;html=1;align=center;verticalAlign=middle;resizable=0;points=[];" parent="VRYn3jgNpUZlm6RyWlzc-165" vertex="1" connectable="0">
          <mxGeometry x="-0.1461" y="2" relative="1" as="geometry">
            <mxPoint as="offset" />
          </mxGeometry>
        </mxCell>
        <mxCell id="VRYn3jgNpUZlm6RyWlzc-70" value="SE_TGBWH" style="ellipse;whiteSpace=wrap;html=1;" parent="1" vertex="1">
          <mxGeometry x="720" y="780" width="120" height="80" as="geometry" />
        </mxCell>
        <mxCell id="VRYn3jgNpUZlm6RyWlzc-82" style="edgeStyle=orthogonalEdgeStyle;rounded=0;orthogonalLoop=1;jettySize=auto;html=1;endArrow=none;endFill=0;" parent="1" source="VRYn3jgNpUZlm6RyWlzc-80" target="VRYn3jgNpUZlm6RyWlzc-28" edge="1">
          <mxGeometry relative="1" as="geometry" />
        </mxCell>
        <mxCell id="VRYn3jgNpUZlm6RyWlzc-84" value="21" style="edgeLabel;html=1;align=center;verticalAlign=middle;resizable=0;points=[];" parent="VRYn3jgNpUZlm6RyWlzc-82" vertex="1" connectable="0">
          <mxGeometry x="0.0397" y="-1" relative="1" as="geometry">
            <mxPoint as="offset" />
          </mxGeometry>
        </mxCell>
        <mxCell id="VRYn3jgNpUZlm6RyWlzc-179" style="edgeStyle=orthogonalEdgeStyle;rounded=0;orthogonalLoop=1;jettySize=auto;html=1;exitX=1;exitY=0;exitDx=0;exitDy=0;entryX=0;entryY=0;entryDx=0;entryDy=0;endArrow=none;endFill=0;" parent="1" source="VRYn3jgNpUZlm6RyWlzc-80" target="VRYn3jgNpUZlm6RyWlzc-70" edge="1">
          <mxGeometry relative="1" as="geometry" />
        </mxCell>
        <mxCell id="VRYn3jgNpUZlm6RyWlzc-180" value="45" style="edgeLabel;html=1;align=center;verticalAlign=middle;resizable=0;points=[];" parent="VRYn3jgNpUZlm6RyWlzc-179" vertex="1" connectable="0">
          <mxGeometry x="-0.0069" y="-3" relative="1" as="geometry">
            <mxPoint as="offset" />
          </mxGeometry>
        </mxCell>
        <mxCell id="VRYn3jgNpUZlm6RyWlzc-80" value="SW_TGBWH" style="ellipse;whiteSpace=wrap;html=1;" parent="1" vertex="1">
          <mxGeometry x="10" y="760" width="120" height="80" as="geometry" />
        </mxCell>
        <mxCell id="VRYn3jgNpUZlm6RyWlzc-88" style="edgeStyle=orthogonalEdgeStyle;rounded=0;orthogonalLoop=1;jettySize=auto;html=1;entryX=0;entryY=0.5;entryDx=0;entryDy=0;endArrow=none;endFill=0;" parent="1" source="VRYn3jgNpUZlm6RyWlzc-85" target="VRYn3jgNpUZlm6RyWlzc-63" edge="1">
          <mxGeometry relative="1" as="geometry">
            <Array as="points">
              <mxPoint x="700" y="210" />
            </Array>
          </mxGeometry>
        </mxCell>
        <mxCell id="VRYn3jgNpUZlm6RyWlzc-89" value="21" style="edgeLabel;html=1;align=center;verticalAlign=middle;resizable=0;points=[];" parent="VRYn3jgNpUZlm6RyWlzc-88" vertex="1" connectable="0">
          <mxGeometry x="-0.4929" y="-1" relative="1" as="geometry">
            <mxPoint as="offset" />
          </mxGeometry>
        </mxCell>
        <mxCell id="VRYn3jgNpUZlm6RyWlzc-175" style="edgeStyle=orthogonalEdgeStyle;rounded=0;orthogonalLoop=1;jettySize=auto;html=1;entryX=0.5;entryY=0;entryDx=0;entryDy=0;endArrow=none;endFill=0;" parent="1" source="VRYn3jgNpUZlm6RyWlzc-85" target="VRYn3jgNpUZlm6RyWlzc-70" edge="1">
          <mxGeometry relative="1" as="geometry" />
        </mxCell>
        <mxCell id="VRYn3jgNpUZlm6RyWlzc-176" value="36" style="edgeLabel;html=1;align=center;verticalAlign=middle;resizable=0;points=[];" parent="VRYn3jgNpUZlm6RyWlzc-175" vertex="1" connectable="0">
          <mxGeometry x="-0.3996" y="2" relative="1" as="geometry">
            <mxPoint y="-1" as="offset" />
          </mxGeometry>
        </mxCell>
        <mxCell id="VRYn3jgNpUZlm6RyWlzc-85" value="NE_TGBWH" style="ellipse;whiteSpace=wrap;html=1;" parent="1" vertex="1">
          <mxGeometry x="620" y="300" width="120" height="80" as="geometry" />
        </mxCell>
        <mxCell id="VRYn3jgNpUZlm6RyWlzc-162" style="edgeStyle=orthogonalEdgeStyle;rounded=0;orthogonalLoop=1;jettySize=auto;html=1;endArrow=none;endFill=0;" parent="1" source="VRYn3jgNpUZlm6RyWlzc-90" target="VRYn3jgNpUZlm6RyWlzc-164" edge="1">
          <mxGeometry relative="1" as="geometry">
            <mxPoint x="370" y="450" as="targetPoint" />
          </mxGeometry>
        </mxCell>
        <mxCell id="VRYn3jgNpUZlm6RyWlzc-163" value="14" style="edgeLabel;html=1;align=center;verticalAlign=middle;resizable=0;points=[];" parent="VRYn3jgNpUZlm6RyWlzc-162" vertex="1" connectable="0">
          <mxGeometry x="-0.1904" y="-1" relative="1" as="geometry">
            <mxPoint x="-1" as="offset" />
          </mxGeometry>
        </mxCell>
        <mxCell id="VRYn3jgNpUZlm6RyWlzc-173" style="edgeStyle=orthogonalEdgeStyle;rounded=0;orthogonalLoop=1;jettySize=auto;html=1;entryX=0.5;entryY=0;entryDx=0;entryDy=0;exitX=1;exitY=1;exitDx=0;exitDy=0;endArrow=none;endFill=0;" parent="1" source="VRYn3jgNpUZlm6RyWlzc-90" target="VRYn3jgNpUZlm6RyWlzc-80" edge="1">
          <mxGeometry relative="1" as="geometry">
            <Array as="points">
              <mxPoint x="240" y="348" />
              <mxPoint x="240" y="560" />
              <mxPoint x="70" y="560" />
            </Array>
          </mxGeometry>
        </mxCell>
        <mxCell id="VRYn3jgNpUZlm6RyWlzc-174" value="36" style="edgeLabel;html=1;align=center;verticalAlign=middle;resizable=0;points=[];" parent="VRYn3jgNpUZlm6RyWlzc-173" vertex="1" connectable="0">
          <mxGeometry x="0.0853" y="2" relative="1" as="geometry">
            <mxPoint x="-1" as="offset" />
          </mxGeometry>
        </mxCell>
        <mxCell id="VRYn3jgNpUZlm6RyWlzc-177" style="edgeStyle=orthogonalEdgeStyle;rounded=0;orthogonalLoop=1;jettySize=auto;html=1;endArrow=none;endFill=0;" parent="1" source="VRYn3jgNpUZlm6RyWlzc-90" target="VRYn3jgNpUZlm6RyWlzc-85" edge="1">
          <mxGeometry relative="1" as="geometry">
            <Array as="points">
              <mxPoint x="450" y="300" />
              <mxPoint x="450" y="300" />
            </Array>
          </mxGeometry>
        </mxCell>
        <mxCell id="VRYn3jgNpUZlm6RyWlzc-178" value="45" style="edgeLabel;html=1;align=center;verticalAlign=middle;resizable=0;points=[];" parent="VRYn3jgNpUZlm6RyWlzc-177" vertex="1" connectable="0">
          <mxGeometry x="-0.1038" y="1" relative="1" as="geometry">
            <mxPoint x="1" as="offset" />
          </mxGeometry>
        </mxCell>
        <mxCell id="VRYn3jgNpUZlm6RyWlzc-90" value="NW_TGBWH" style="ellipse;whiteSpace=wrap;html=1;" parent="1" vertex="1">
          <mxGeometry x="120" y="280" width="120" height="80" as="geometry" />
        </mxCell>
        <mxCell id="VRYn3jgNpUZlm6RyWlzc-91" style="edgeStyle=orthogonalEdgeStyle;rounded=0;orthogonalLoop=1;jettySize=auto;html=1;entryX=0.637;entryY=0.013;entryDx=0;entryDy=0;entryPerimeter=0;endArrow=none;endFill=0;" parent="1" source="VRYn3jgNpUZlm6RyWlzc-4" target="VRYn3jgNpUZlm6RyWlzc-90" edge="1">
          <mxGeometry relative="1" as="geometry">
            <Array as="points">
              <mxPoint x="196" y="220" />
            </Array>
          </mxGeometry>
        </mxCell>
        <mxCell id="VRYn3jgNpUZlm6RyWlzc-92" value="17.5" style="edgeLabel;html=1;align=center;verticalAlign=middle;resizable=0;points=[];" parent="VRYn3jgNpUZlm6RyWlzc-91" vertex="1" connectable="0">
          <mxGeometry x="0.3555" y="-1" relative="1" as="geometry">
            <mxPoint as="offset" />
          </mxGeometry>
        </mxCell>
        <mxCell id="VRYn3jgNpUZlm6RyWlzc-93" style="edgeStyle=orthogonalEdgeStyle;rounded=0;orthogonalLoop=1;jettySize=auto;html=1;entryX=0.393;entryY=0.965;entryDx=0;entryDy=0;entryPerimeter=0;endArrow=none;endFill=0;" parent="1" source="VRYn3jgNpUZlm6RyWlzc-90" target="VRYn3jgNpUZlm6RyWlzc-8" edge="1">
          <mxGeometry relative="1" as="geometry">
            <Array as="points">
              <mxPoint x="57" y="320" />
            </Array>
          </mxGeometry>
        </mxCell>
        <mxCell id="VRYn3jgNpUZlm6RyWlzc-94" value="21" style="edgeLabel;html=1;align=center;verticalAlign=middle;resizable=0;points=[];" parent="VRYn3jgNpUZlm6RyWlzc-93" vertex="1" connectable="0">
          <mxGeometry x="-0.2085" y="-2" relative="1" as="geometry">
            <mxPoint as="offset" />
          </mxGeometry>
        </mxCell>
        <mxCell id="VRYn3jgNpUZlm6RyWlzc-95" value="TOILET LT2 NW" style="ellipse;whiteSpace=wrap;html=1;" parent="1" vertex="1">
          <mxGeometry x="90" y="450" width="120" height="80" as="geometry" />
        </mxCell>
        <mxCell id="VRYn3jgNpUZlm6RyWlzc-99" value="TOILET LT2 SE" style="ellipse;whiteSpace=wrap;html=1;" parent="1" vertex="1">
          <mxGeometry x="620" y="640" width="120" height="80" as="geometry" />
        </mxCell>
        <mxCell id="VRYn3jgNpUZlm6RyWlzc-105" value="" style="edgeStyle=orthogonalEdgeStyle;rounded=0;orthogonalLoop=1;jettySize=auto;html=1;endArrow=none;endFill=0;" parent="1" source="VRYn3jgNpUZlm6RyWlzc-101" target="VRYn3jgNpUZlm6RyWlzc-104" edge="1">
          <mxGeometry relative="1" as="geometry" />
        </mxCell>
        <mxCell id="VRYn3jgNpUZlm6RyWlzc-106" value="3.5" style="edgeLabel;html=1;align=center;verticalAlign=middle;resizable=0;points=[];" parent="VRYn3jgNpUZlm6RyWlzc-105" vertex="1" connectable="0">
          <mxGeometry x="0.1068" y="-3" relative="1" as="geometry">
            <mxPoint as="offset" />
          </mxGeometry>
        </mxCell>
        <mxCell id="VRYn3jgNpUZlm6RyWlzc-117" style="edgeStyle=orthogonalEdgeStyle;rounded=0;orthogonalLoop=1;jettySize=auto;html=1;entryX=1;entryY=0.5;entryDx=0;entryDy=0;endArrow=none;endFill=0;" parent="1" source="VRYn3jgNpUZlm6RyWlzc-101" target="VRYn3jgNpUZlm6RyWlzc-116" edge="1">
          <mxGeometry relative="1" as="geometry">
            <Array as="points">
              <mxPoint x="1150" y="1160" />
            </Array>
          </mxGeometry>
        </mxCell>
        <mxCell id="VRYn3jgNpUZlm6RyWlzc-118" value="7" style="edgeLabel;html=1;align=center;verticalAlign=middle;resizable=0;points=[];" parent="VRYn3jgNpUZlm6RyWlzc-117" vertex="1" connectable="0">
          <mxGeometry x="-0.5249" relative="1" as="geometry">
            <mxPoint x="-20" y="18" as="offset" />
          </mxGeometry>
        </mxCell>
        <mxCell id="VRYn3jgNpUZlm6RyWlzc-101" value="SE_TG3_LOWER" style="ellipse;whiteSpace=wrap;html=1;" parent="1" vertex="1">
          <mxGeometry x="1090" y="970" width="120" height="80" as="geometry" />
        </mxCell>
        <mxCell id="VRYn3jgNpUZlm6RyWlzc-108" style="edgeStyle=orthogonalEdgeStyle;rounded=0;orthogonalLoop=1;jettySize=auto;html=1;entryX=0.5;entryY=1;entryDx=0;entryDy=0;endArrow=none;endFill=0;" parent="1" source="VRYn3jgNpUZlm6RyWlzc-104" target="VRYn3jgNpUZlm6RyWlzc-107" edge="1">
          <mxGeometry relative="1" as="geometry" />
        </mxCell>
        <mxCell id="VRYn3jgNpUZlm6RyWlzc-109" value="12" style="edgeLabel;html=1;align=center;verticalAlign=middle;resizable=0;points=[];" parent="VRYn3jgNpUZlm6RyWlzc-108" vertex="1" connectable="0">
          <mxGeometry x="0.1029" y="-6" relative="1" as="geometry">
            <mxPoint x="-6" as="offset" />
          </mxGeometry>
        </mxCell>
        <mxCell id="VRYn3jgNpUZlm6RyWlzc-104" value="9131" style="ellipse;whiteSpace=wrap;html=1;" parent="1" vertex="1">
          <mxGeometry x="1090" y="690" width="120" height="80" as="geometry" />
        </mxCell>
        <mxCell id="VRYn3jgNpUZlm6RyWlzc-111" style="edgeStyle=orthogonalEdgeStyle;rounded=0;orthogonalLoop=1;jettySize=auto;html=1;endArrow=none;endFill=0;" parent="1" source="VRYn3jgNpUZlm6RyWlzc-107" target="VRYn3jgNpUZlm6RyWlzc-112" edge="1">
          <mxGeometry relative="1" as="geometry">
            <mxPoint x="1150" y="330" as="targetPoint" />
          </mxGeometry>
        </mxCell>
        <mxCell id="VRYn3jgNpUZlm6RyWlzc-113" value="3.5" style="edgeLabel;html=1;align=center;verticalAlign=middle;resizable=0;points=[];" parent="VRYn3jgNpUZlm6RyWlzc-111" vertex="1" connectable="0">
          <mxGeometry x="0.225" y="-1" relative="1" as="geometry">
            <mxPoint as="offset" />
          </mxGeometry>
        </mxCell>
        <mxCell id="VRYn3jgNpUZlm6RyWlzc-107" value="9132" style="ellipse;whiteSpace=wrap;html=1;" parent="1" vertex="1">
          <mxGeometry x="1090" y="440" width="120" height="80" as="geometry" />
        </mxCell>
        <mxCell id="VRYn3jgNpUZlm6RyWlzc-112" value="NE_TG3_LOWER" style="ellipse;whiteSpace=wrap;html=1;" parent="1" vertex="1">
          <mxGeometry x="1090" y="280" width="120" height="80" as="geometry" />
        </mxCell>
        <mxCell id="VRYn3jgNpUZlm6RyWlzc-120" value="" style="edgeStyle=orthogonalEdgeStyle;rounded=0;orthogonalLoop=1;jettySize=auto;html=1;endArrow=none;endFill=0;" parent="1" source="VRYn3jgNpUZlm6RyWlzc-116" target="VRYn3jgNpUZlm6RyWlzc-119" edge="1">
          <mxGeometry relative="1" as="geometry" />
        </mxCell>
        <mxCell id="VRYn3jgNpUZlm6RyWlzc-121" value="10.5" style="edgeLabel;html=1;align=center;verticalAlign=middle;resizable=0;points=[];" parent="VRYn3jgNpUZlm6RyWlzc-120" vertex="1" connectable="0">
          <mxGeometry x="-0.2457" relative="1" as="geometry">
            <mxPoint as="offset" />
          </mxGeometry>
        </mxCell>
        <mxCell id="VRYn3jgNpUZlm6RyWlzc-169" value="" style="edgeStyle=orthogonalEdgeStyle;rounded=0;orthogonalLoop=1;jettySize=auto;html=1;endArrow=none;endFill=0;" parent="1" source="VRYn3jgNpUZlm6RyWlzc-116" target="VRYn3jgNpUZlm6RyWlzc-168" edge="1">
          <mxGeometry relative="1" as="geometry" />
        </mxCell>
        <mxCell id="VRYn3jgNpUZlm6RyWlzc-172" value="7" style="edgeLabel;html=1;align=center;verticalAlign=middle;resizable=0;points=[];" parent="VRYn3jgNpUZlm6RyWlzc-169" vertex="1" connectable="0">
          <mxGeometry x="-0.1143" y="-1" relative="1" as="geometry">
            <mxPoint y="1" as="offset" />
          </mxGeometry>
        </mxCell>
        <mxCell id="VRYn3jgNpUZlm6RyWlzc-116" value="SE_TG3_UPPER" style="ellipse;whiteSpace=wrap;html=1;" parent="1" vertex="1">
          <mxGeometry x="750" y="1120" width="120" height="80" as="geometry" />
        </mxCell>
        <mxCell id="VRYn3jgNpUZlm6RyWlzc-123" value="" style="edgeStyle=orthogonalEdgeStyle;rounded=0;orthogonalLoop=1;jettySize=auto;html=1;endArrow=none;endFill=0;" parent="1" source="VRYn3jgNpUZlm6RyWlzc-119" target="VRYn3jgNpUZlm6RyWlzc-122" edge="1">
          <mxGeometry relative="1" as="geometry" />
        </mxCell>
        <mxCell id="VRYn3jgNpUZlm6RyWlzc-124" value="12" style="edgeLabel;html=1;align=center;verticalAlign=middle;resizable=0;points=[];" parent="VRYn3jgNpUZlm6RyWlzc-123" vertex="1" connectable="0">
          <mxGeometry x="-0.2234" y="2" relative="1" as="geometry">
            <mxPoint x="-10" y="-2" as="offset" />
          </mxGeometry>
        </mxCell>
        <mxCell id="VRYn3jgNpUZlm6RyWlzc-119" value="9138" style="ellipse;whiteSpace=wrap;html=1;" parent="1" vertex="1">
          <mxGeometry x="530" y="1120" width="120" height="80" as="geometry" />
        </mxCell>
        <mxCell id="VRYn3jgNpUZlm6RyWlzc-126" style="edgeStyle=orthogonalEdgeStyle;rounded=0;orthogonalLoop=1;jettySize=auto;html=1;endArrow=none;endFill=0;" parent="1" source="VRYn3jgNpUZlm6RyWlzc-122" target="VRYn3jgNpUZlm6RyWlzc-125" edge="1">
          <mxGeometry relative="1" as="geometry" />
        </mxCell>
        <mxCell id="VRYn3jgNpUZlm6RyWlzc-127" value="10.5" style="edgeLabel;html=1;align=center;verticalAlign=middle;resizable=0;points=[];" parent="VRYn3jgNpUZlm6RyWlzc-126" vertex="1" connectable="0">
          <mxGeometry x="0.0087" y="2" relative="1" as="geometry">
            <mxPoint as="offset" />
          </mxGeometry>
        </mxCell>
        <mxCell id="VRYn3jgNpUZlm6RyWlzc-122" value="9137" style="ellipse;whiteSpace=wrap;html=1;" parent="1" vertex="1">
          <mxGeometry x="230" y="1120" width="120" height="80" as="geometry" />
        </mxCell>
        <mxCell id="VRYn3jgNpUZlm6RyWlzc-129" style="edgeStyle=orthogonalEdgeStyle;rounded=0;orthogonalLoop=1;jettySize=auto;html=1;entryX=0.5;entryY=1;entryDx=0;entryDy=0;endArrow=none;endFill=0;" parent="1" source="VRYn3jgNpUZlm6RyWlzc-125" target="VRYn3jgNpUZlm6RyWlzc-128" edge="1">
          <mxGeometry relative="1" as="geometry" />
        </mxCell>
        <mxCell id="VRYn3jgNpUZlm6RyWlzc-140" value="7" style="edgeLabel;html=1;align=center;verticalAlign=middle;resizable=0;points=[];" parent="VRYn3jgNpUZlm6RyWlzc-129" vertex="1" connectable="0">
          <mxGeometry x="-0.2846" relative="1" as="geometry">
            <mxPoint x="1" as="offset" />
          </mxGeometry>
        </mxCell>
        <mxCell id="VRYn3jgNpUZlm6RyWlzc-125" value="SW_TG3_UPPER" style="ellipse;whiteSpace=wrap;html=1;" parent="1" vertex="1">
          <mxGeometry y="1120" width="120" height="80" as="geometry" />
        </mxCell>
        <mxCell id="VRYn3jgNpUZlm6RyWlzc-130" style="edgeStyle=orthogonalEdgeStyle;rounded=0;orthogonalLoop=1;jettySize=auto;html=1;entryX=0;entryY=1;entryDx=0;entryDy=0;endArrow=none;endFill=0;" parent="1" source="VRYn3jgNpUZlm6RyWlzc-128" target="VRYn3jgNpUZlm6RyWlzc-25" edge="1">
          <mxGeometry relative="1" as="geometry">
            <Array as="points">
              <mxPoint x="-320" y="848" />
            </Array>
          </mxGeometry>
        </mxCell>
        <mxCell id="VRYn3jgNpUZlm6RyWlzc-134" value="14" style="edgeLabel;html=1;align=center;verticalAlign=middle;resizable=0;points=[];" parent="VRYn3jgNpUZlm6RyWlzc-130" vertex="1" connectable="0">
          <mxGeometry x="-0.1763" relative="1" as="geometry">
            <mxPoint y="38" as="offset" />
          </mxGeometry>
        </mxCell>
        <mxCell id="VRYn3jgNpUZlm6RyWlzc-136" style="edgeStyle=orthogonalEdgeStyle;rounded=0;orthogonalLoop=1;jettySize=auto;html=1;entryX=0.5;entryY=1;entryDx=0;entryDy=0;endArrow=none;endFill=0;" parent="1" source="VRYn3jgNpUZlm6RyWlzc-128" target="VRYn3jgNpUZlm6RyWlzc-135" edge="1">
          <mxGeometry relative="1" as="geometry">
            <Array as="points">
              <mxPoint x="-425" y="1020" />
            </Array>
          </mxGeometry>
        </mxCell>
        <mxCell id="VRYn3jgNpUZlm6RyWlzc-141" value="3.5" style="edgeLabel;html=1;align=center;verticalAlign=middle;resizable=0;points=[];" parent="VRYn3jgNpUZlm6RyWlzc-136" vertex="1" connectable="0">
          <mxGeometry x="0.3053" y="3" relative="1" as="geometry">
            <mxPoint as="offset" />
          </mxGeometry>
        </mxCell>
        <mxCell id="VRYn3jgNpUZlm6RyWlzc-128" value="SW_TG3_LOWER" style="ellipse;whiteSpace=wrap;html=1;" parent="1" vertex="1">
          <mxGeometry x="-380" y="980" width="120" height="80" as="geometry" />
        </mxCell>
        <mxCell id="VRYn3jgNpUZlm6RyWlzc-138" style="edgeStyle=orthogonalEdgeStyle;rounded=0;orthogonalLoop=1;jettySize=auto;html=1;endArrow=none;endFill=0;" parent="1" source="VRYn3jgNpUZlm6RyWlzc-135" target="VRYn3jgNpUZlm6RyWlzc-137" edge="1">
          <mxGeometry relative="1" as="geometry" />
        </mxCell>
        <mxCell id="VRYn3jgNpUZlm6RyWlzc-142" value="12" style="edgeLabel;html=1;align=center;verticalAlign=middle;resizable=0;points=[];" parent="VRYn3jgNpUZlm6RyWlzc-138" vertex="1" connectable="0">
          <mxGeometry x="-0.127" y="-2" relative="1" as="geometry">
            <mxPoint as="offset" />
          </mxGeometry>
        </mxCell>
        <mxCell id="VRYn3jgNpUZlm6RyWlzc-135" value="9136" style="ellipse;whiteSpace=wrap;html=1;" parent="1" vertex="1">
          <mxGeometry x="-485" y="660" width="120" height="80" as="geometry" />
        </mxCell>
        <mxCell id="VRYn3jgNpUZlm6RyWlzc-144" style="edgeStyle=orthogonalEdgeStyle;rounded=0;orthogonalLoop=1;jettySize=auto;html=1;entryX=0;entryY=0.5;entryDx=0;entryDy=0;endArrow=none;endFill=0;" parent="1" source="VRYn3jgNpUZlm6RyWlzc-137" target="VRYn3jgNpUZlm6RyWlzc-143" edge="1">
          <mxGeometry relative="1" as="geometry" />
        </mxCell>
        <mxCell id="VRYn3jgNpUZlm6RyWlzc-145" value="3.5" style="edgeLabel;html=1;align=center;verticalAlign=middle;resizable=0;points=[];" parent="VRYn3jgNpUZlm6RyWlzc-144" vertex="1" connectable="0">
          <mxGeometry x="-0.1891" y="-1" relative="1" as="geometry">
            <mxPoint as="offset" />
          </mxGeometry>
        </mxCell>
        <mxCell id="VRYn3jgNpUZlm6RyWlzc-137" value="9135" style="ellipse;whiteSpace=wrap;html=1;" parent="1" vertex="1">
          <mxGeometry x="-485" y="480" width="120" height="80" as="geometry" />
        </mxCell>
        <mxCell id="VRYn3jgNpUZlm6RyWlzc-147" value="" style="edgeStyle=orthogonalEdgeStyle;rounded=0;orthogonalLoop=1;jettySize=auto;html=1;endArrow=none;endFill=0;" parent="1" source="VRYn3jgNpUZlm6RyWlzc-143" target="VRYn3jgNpUZlm6RyWlzc-146" edge="1">
          <mxGeometry relative="1" as="geometry" />
        </mxCell>
        <mxCell id="VRYn3jgNpUZlm6RyWlzc-150" value="7" style="edgeLabel;html=1;align=center;verticalAlign=middle;resizable=0;points=[];" parent="VRYn3jgNpUZlm6RyWlzc-147" vertex="1" connectable="0">
          <mxGeometry x="0.0489" y="3" relative="1" as="geometry">
            <mxPoint as="offset" />
          </mxGeometry>
        </mxCell>
        <mxCell id="VRYn3jgNpUZlm6RyWlzc-143" value="NW_TG3_LOWER" style="ellipse;whiteSpace=wrap;html=1;" parent="1" vertex="1">
          <mxGeometry x="-380" y="290" width="120" height="80" as="geometry" />
        </mxCell>
        <mxCell id="VRYn3jgNpUZlm6RyWlzc-152" style="edgeStyle=orthogonalEdgeStyle;rounded=0;orthogonalLoop=1;jettySize=auto;html=1;entryX=0;entryY=0.5;entryDx=0;entryDy=0;endArrow=none;endFill=0;" parent="1" source="VRYn3jgNpUZlm6RyWlzc-146" target="VRYn3jgNpUZlm6RyWlzc-151" edge="1">
          <mxGeometry relative="1" as="geometry" />
        </mxCell>
        <mxCell id="VRYn3jgNpUZlm6RyWlzc-153" value="10.5" style="edgeLabel;html=1;align=center;verticalAlign=middle;resizable=0;points=[];" parent="VRYn3jgNpUZlm6RyWlzc-152" vertex="1" connectable="0">
          <mxGeometry x="0.0145" y="-1" relative="1" as="geometry">
            <mxPoint as="offset" />
          </mxGeometry>
        </mxCell>
        <mxCell id="VRYn3jgNpUZlm6RyWlzc-171" value="" style="edgeStyle=orthogonalEdgeStyle;rounded=0;orthogonalLoop=1;jettySize=auto;html=1;endArrow=none;endFill=0;" parent="1" source="VRYn3jgNpUZlm6RyWlzc-146" target="VRYn3jgNpUZlm6RyWlzc-170" edge="1">
          <mxGeometry relative="1" as="geometry" />
        </mxCell>
        <mxCell id="mn-DaLhlBLIeVdSQLCF7-2" value="7" style="edgeLabel;html=1;align=center;verticalAlign=middle;resizable=0;points=[];" vertex="1" connectable="0" parent="VRYn3jgNpUZlm6RyWlzc-171">
          <mxGeometry x="0.19" y="-3" relative="1" as="geometry">
            <mxPoint as="offset" />
          </mxGeometry>
        </mxCell>
        <mxCell id="VRYn3jgNpUZlm6RyWlzc-146" value="NW_TG3_UPPER" style="ellipse;whiteSpace=wrap;html=1;" parent="1" vertex="1">
          <mxGeometry x="-270" width="120" height="80" as="geometry" />
        </mxCell>
        <mxCell id="VRYn3jgNpUZlm6RyWlzc-148" style="edgeStyle=orthogonalEdgeStyle;rounded=0;orthogonalLoop=1;jettySize=auto;html=1;exitX=0;exitY=0;exitDx=0;exitDy=0;entryX=1;entryY=0.5;entryDx=0;entryDy=0;endArrow=none;endFill=0;" parent="1" source="VRYn3jgNpUZlm6RyWlzc-10" target="VRYn3jgNpUZlm6RyWlzc-143" edge="1">
          <mxGeometry relative="1" as="geometry" />
        </mxCell>
        <mxCell id="VRYn3jgNpUZlm6RyWlzc-149" value="14" style="edgeLabel;html=1;align=center;verticalAlign=middle;resizable=0;points=[];" parent="VRYn3jgNpUZlm6RyWlzc-148" vertex="1" connectable="0">
          <mxGeometry x="0.0671" y="-1" relative="1" as="geometry">
            <mxPoint as="offset" />
          </mxGeometry>
        </mxCell>
        <mxCell id="VRYn3jgNpUZlm6RyWlzc-155" style="edgeStyle=orthogonalEdgeStyle;rounded=0;orthogonalLoop=1;jettySize=auto;html=1;entryX=0;entryY=0.5;entryDx=0;entryDy=0;endArrow=none;endFill=0;" parent="1" source="VRYn3jgNpUZlm6RyWlzc-151" target="VRYn3jgNpUZlm6RyWlzc-154" edge="1">
          <mxGeometry relative="1" as="geometry" />
        </mxCell>
        <mxCell id="VRYn3jgNpUZlm6RyWlzc-156" value="12" style="edgeLabel;html=1;align=center;verticalAlign=middle;resizable=0;points=[];" parent="VRYn3jgNpUZlm6RyWlzc-155" vertex="1" connectable="0">
          <mxGeometry x="0.0227" y="2" relative="1" as="geometry">
            <mxPoint as="offset" />
          </mxGeometry>
        </mxCell>
        <mxCell id="VRYn3jgNpUZlm6RyWlzc-151" value="9134" style="ellipse;whiteSpace=wrap;html=1;" parent="1" vertex="1">
          <mxGeometry x="70" y="-120" width="120" height="80" as="geometry" />
        </mxCell>
        <mxCell id="VRYn3jgNpUZlm6RyWlzc-158" style="edgeStyle=orthogonalEdgeStyle;rounded=0;orthogonalLoop=1;jettySize=auto;html=1;entryX=0;entryY=0.5;entryDx=0;entryDy=0;endArrow=none;endFill=0;" parent="1" source="VRYn3jgNpUZlm6RyWlzc-154" target="VRYn3jgNpUZlm6RyWlzc-157" edge="1">
          <mxGeometry relative="1" as="geometry" />
        </mxCell>
        <mxCell id="VRYn3jgNpUZlm6RyWlzc-159" value="10.5" style="edgeLabel;html=1;align=center;verticalAlign=middle;resizable=0;points=[];" parent="VRYn3jgNpUZlm6RyWlzc-158" vertex="1" connectable="0">
          <mxGeometry x="-0.0844" relative="1" as="geometry">
            <mxPoint as="offset" />
          </mxGeometry>
        </mxCell>
        <mxCell id="VRYn3jgNpUZlm6RyWlzc-154" value="9133" style="ellipse;whiteSpace=wrap;html=1;" parent="1" vertex="1">
          <mxGeometry x="510" y="-120" width="120" height="80" as="geometry" />
        </mxCell>
        <mxCell id="VRYn3jgNpUZlm6RyWlzc-160" style="edgeStyle=orthogonalEdgeStyle;rounded=0;orthogonalLoop=1;jettySize=auto;html=1;entryX=0.5;entryY=0;entryDx=0;entryDy=0;endArrow=none;endFill=0;" parent="1" source="VRYn3jgNpUZlm6RyWlzc-157" target="VRYn3jgNpUZlm6RyWlzc-112" edge="1">
          <mxGeometry relative="1" as="geometry">
            <Array as="points">
              <mxPoint x="1030" y="10" />
              <mxPoint x="1030" y="280" />
            </Array>
          </mxGeometry>
        </mxCell>
        <mxCell id="VRYn3jgNpUZlm6RyWlzc-161" value="7" style="edgeLabel;html=1;align=center;verticalAlign=middle;resizable=0;points=[];" parent="VRYn3jgNpUZlm6RyWlzc-160" vertex="1" connectable="0">
          <mxGeometry x="-0.1185" y="5" relative="1" as="geometry">
            <mxPoint x="-5" as="offset" />
          </mxGeometry>
        </mxCell>
        <mxCell id="VRYn3jgNpUZlm6RyWlzc-157" value="NE_TG3_UPPER" style="ellipse;whiteSpace=wrap;html=1;" parent="1" vertex="1">
          <mxGeometry x="800" y="-30" width="120" height="80" as="geometry" />
        </mxCell>
        <mxCell id="VRYn3jgNpUZlm6RyWlzc-164" value="TOILET NW 1,5" style="ellipse;whiteSpace=wrap;html=1;" parent="1" vertex="1">
          <mxGeometry x="310" y="410" width="120" height="80" as="geometry" />
        </mxCell>
        <mxCell id="VRYn3jgNpUZlm6RyWlzc-166" value="TOILET SE 1,5" style="ellipse;whiteSpace=wrap;html=1;" parent="1" vertex="1">
          <mxGeometry x="440" y="570" width="120" height="80" as="geometry" />
        </mxCell>
        <mxCell id="VRYn3jgNpUZlm6RyWlzc-168" value="TOILET LT3 SE" style="ellipse;whiteSpace=wrap;html=1;" parent="1" vertex="1">
          <mxGeometry x="750" y="1280" width="120" height="80" as="geometry" />
        </mxCell>
        <mxCell id="VRYn3jgNpUZlm6RyWlzc-170" value="TOILET LT3 NW" style="ellipse;whiteSpace=wrap;html=1;" parent="1" vertex="1">
          <mxGeometry x="-270" y="-160" width="120" height="80" as="geometry" />
        </mxCell>
      </root>
    </mxGraphModel>
  </diagram>
</mxfile>
